<?xml version="1.0" encoding="UTF-8" standalone="no"?>
<svg
   xmlns:dc="http://purl.org/dc/elements/1.1/"
   xmlns:cc="http://creativecommons.org/ns#"
   xmlns:rdf="http://www.w3.org/1999/02/22-rdf-syntax-ns#"
   xmlns:svg="http://www.w3.org/2000/svg"
   xmlns="http://www.w3.org/2000/svg"
   xmlns:sodipodi="http://sodipodi.sourceforge.net/DTD/sodipodi-0.dtd"
   xmlns:inkscape="http://www.inkscape.org/namespaces/inkscape"
   width="768"
   height="255.99998"
   viewBox="0 0 203.19999 67.733331"
   version="1.1"
   id="svg8"
   inkscape:version="1.0.1 (3bc2e813f5, 2020-09-07)"
   sodipodi:docname="autotile_template_3x3.svg"
   inkscape:export-filename="C:\Data\Hack\Godot\godot-projects\Gravity2D\assets\tiles\floor.png"
   inkscape:export-xdpi="96"
   inkscape:export-ydpi="96">
  <defs
     id="defs2" />
  <sodipodi:namedview
     id="base"
     pagecolor="#ffffff"
     bordercolor="#666666"
     borderopacity="1.0"
     inkscape:pageopacity="0.0"
     inkscape:pageshadow="2"
     inkscape:zoom="1.4"
     inkscape:cx="300.29538"
     inkscape:cy="98.93698"
     inkscape:document-units="px"
     inkscape:current-layer="layer2"
     inkscape:document-rotation="0"
     showgrid="true"
     inkscape:window-width="1920"
     inkscape:window-height="1013"
     inkscape:window-x="-9"
     inkscape:window-y="-9"
     inkscape:window-maximized="1"
     units="px"
     inkscape:snap-bbox="true"
     inkscape:bbox-nodes="true"
     fit-margin-top="0"
     fit-margin-left="0"
     fit-margin-right="0"
     fit-margin-bottom="0"
     inkscape:snap-page="true"
     inkscape:snap-bbox-edge-midpoints="true">
    <inkscape:grid
       type="xygrid"
       id="grid833"
       spacingx="16.933333"
       spacingy="16.933333"
       originx="1.9384723e-21"
       originy="0" />
    <inkscape:grid
       type="xygrid"
       id="grid880"
       color="#3fff3f"
       opacity="0.1254902"
       empcolor="#3fff3f"
       empopacity="0.1254902"
       empspacing="4"
       dotted="true"
       originx="3.8769446e-21"
       originy="0" />
  </sodipodi:namedview>
  <metadata
     id="metadata5">
    <rdf:RDF>
      <cc:Work
         rdf:about="">
        <dc:format>image/svg+xml</dc:format>
        <dc:type
           rdf:resource="http://purl.org/dc/dcmitype/StillImage" />
        <dc:title></dc:title>
      </cc:Work>
    </rdf:RDF>
  </metadata>
  <g
     inkscape:groupmode="layer"
     id="layer3"
     inkscape:label="BG"
     style="display:inline"
     sodipodi:insensitive="true">
    <rect
       style="fill:#000000;fill-opacity:1;stroke:none;stroke-width:0;stop-color:#000000"
       id="rect878"
       width="203.2"
       height="67.73333"
       x="-2.269431e-21"
       y="0" />
  </g>
  <g
     inkscape:groupmode="layer"
     id="layer2"
     inkscape:label="Tiles"
     style="display:inline">
    <rect
       style="display:inline;opacity:1;fill:#939393;fill-opacity:1;stroke-width:0;stop-color:#000000"
       id="rect928"
       width="5.8208332"
       height="39.6875"
       x="5.5562501"
       y="5.5562496" />
    <rect
       style="display:inline;opacity:1;fill:#939393;fill-opacity:1;stroke-width:0;stop-color:#000000"
       id="rect928-0"
       width="5.8208332"
       height="5.8208332"
       x="5.5562501"
       y="56.356251" />
    <rect
       style="display:inline;opacity:1;fill:#939393;fill-opacity:1;stroke-width:0;stop-color:#000000"
       id="rect928-1"
       width="5.8208332"
       height="39.6875"
       x="56.356251"
       y="-62.177082"
       transform="rotate(90)" />
    <path
       id="rect928-08"
       style="display:inline;opacity:1;fill:#939393;fill-opacity:1;stroke-width:0;stop-color:#000000"
       d="M 85,21 V 171 H 235 V 21 Z m 22,22 h 42 v 42 h -42 z m 64,0 h 42 v 42 h -42 z m -64,64 h 42 v 42 h -42 z m 64,0 h 42 v 42 h -42 z"
       transform="scale(0.26458333)" />
    <path
       id="rect928-4"
       style="display:inline;opacity:1;fill:#939393;fill-opacity:1;stroke-width:0;stop-color:#000000"
       d="m 256,0 v 43 h 21 v 170 h -21 v 43 h 43 v -21 h 170 v 21 h 43 V 213 H 491 V 43 h 21 V 0 H 469 V 21 H 299 V 0 Z m 43,43 h 42 v 42 h -42 z m 128,0 h 42 V 85 H 427 Z M 299,171 h 42 v 42 h -42 z m 128,0 h 42 v 42 h -42 z"
       transform="scale(0.26458333)" />
    <path
       id="rect928-4-2"
       style="display:inline;opacity:1;fill:#939393;fill-opacity:1;stroke-width:0;stop-color:#000000"
       d="m 597,0 v 21 h -64 v 128 h -21 v 22 h 21 v 64 h 128 v 21 h 22 v -21 h 64 V 107 h 21 V 85 H 747 V 21 H 619 V 0 Z m -21,64 h 21 v 21 h -21 z m 64,0 h 64 v 64 21 h -21 v -21 h -43 -21 v -21 h 21 z m 0,107 h 21 v 21 h -21 z"
       transform="scale(0.26458333)" />
  </g>
</svg>
