<?xml version="1.0" encoding="UTF-8" standalone="no"?>
<svg
   width="296"
   height="296"
   viewBox="0 0 78.316665 78.316668"
   version="1.1"
   id="svg8"
   inkscape:version="1.1.1 (3bf5ae0d25, 2021-09-20)"
   sodipodi:docname="lethals_new.svg"
   inkscape:export-filename="C:\Data\Hack\Godot\godot-projects\Gravity2D\assets\tiles\lethals.png"
   inkscape:export-xdpi="96"
   inkscape:export-ydpi="96"
   xmlns:inkscape="http://www.inkscape.org/namespaces/inkscape"
   xmlns:sodipodi="http://sodipodi.sourceforge.net/DTD/sodipodi-0.dtd"
   xmlns="http://www.w3.org/2000/svg"
   xmlns:svg="http://www.w3.org/2000/svg"
   xmlns:rdf="http://www.w3.org/1999/02/22-rdf-syntax-ns#"
   xmlns:cc="http://creativecommons.org/ns#"
   xmlns:dc="http://purl.org/dc/elements/1.1/">
  <defs
     id="defs2" />
  <sodipodi:namedview
     id="base"
     pagecolor="#ffffff"
     bordercolor="#666666"
     borderopacity="1.0"
     inkscape:pageopacity="0"
     inkscape:pageshadow="2"
     inkscape:zoom="0.98994949"
     inkscape:cx="-3.5355339"
     inkscape:cy="182.33253"
     inkscape:document-units="px"
     inkscape:current-layer="layer2"
     inkscape:document-rotation="0"
     showgrid="true"
     inkscape:window-width="1920"
     inkscape:window-height="1013"
     inkscape:window-x="-9"
     inkscape:window-y="-9"
     inkscape:window-maximized="1"
     units="px"
     inkscape:snap-bbox="true"
     inkscape:bbox-nodes="true"
     fit-margin-top="0"
     fit-margin-left="0"
     fit-margin-right="0"
     fit-margin-bottom="0"
     inkscape:snap-page="true"
     borderlayer="false"
     inkscape:pagecheckerboard="false"
     inkscape:snap-nodes="true"
     gridtolerance="14.6"
     inkscape:snap-global="false">
    <inkscape:grid
       type="xygrid"
       id="grid833"
       spacingx="19.579167"
       spacingy="19.579167"
       originx="8.647897e-14"
       originy="0"
       dotted="false" />
    <inkscape:grid
       type="xygrid"
       id="grid845"
       spacingx="19.579167"
       spacingy="19.579167"
       originx="1.3229167"
       originy="1.3229167"
       dotted="false" />
    <inkscape:grid
       type="xygrid"
       id="grid1057"
       originx="-1.3229167"
       originy="-1.3229167"
       spacingx="19.579167"
       spacingy="19.579167"
       dotted="false" />
    <inkscape:grid
       type="xygrid"
       id="grid4658"
       color="#3fff60"
       opacity="0.1254902"
       empcolor="#3fff50"
       empopacity="0.25098039"
       empspacing="4"
       dotted="true" />
  </sodipodi:namedview>
  <metadata
     id="metadata5">
    <rdf:RDF>
      <cc:Work
         rdf:about="">
        <dc:format>image/svg+xml</dc:format>
        <dc:type
           rdf:resource="http://purl.org/dc/dcmitype/StillImage" />
      </cc:Work>
    </rdf:RDF>
  </metadata>
  <g
     inkscape:groupmode="layer"
     id="layer2"
     inkscape:label="Objects"
     style="display:inline">
    <path
       id="rect1161"
       style="stroke-width:0;stop-color:#000000"
       d="m 1.8520833,18.256249 c 0.3924267,-1.523378 0.4784125,-2.947767 1.2716293,-4.293016 0.1108598,1.447119 0.3523218,2.706019 1.2528259,4.109269 1.4391497,-1.650045 1.4314831,-3.568929 1.6768621,-5.60218 0.8252675,1.911998 1.5939121,3.545978 1.8056885,5.501954 1.3074839,-2.028443 1.1406059,-4.726004 1.7295177,-7.111573 0.6518792,2.546776 1.8854812,4.559991 2.1220382,7.211799 0.924927,-1.648593 1.163017,-3.253698 1.569861,-5.549896 0.553269,2.073806 1.303089,3.558693 1.603036,5.71694 0.945996,-1.671087 1.219192,-3.004824 1.470012,-5.311982 0.786792,1.999001 0.942587,3.295257 1.373528,5.328685 l 1e-6,1.322918 H 1.8520833 Z"
       sodipodi:nodetypes="cccccccccccccc" />
    <path
       id="rect1161-9"
       style="display:inline;stroke-width:0;stop-color:#000000"
       d="m 1.8520833,37.835415 c 0.3924267,-1.523378 1.2999951,-2.729076 1.4553771,-4.393242 0.9700967,1.701885 0.2956861,3.018188 1.0189651,4.393243 1.3532425,-1.658994 1.581443,-3.665392 2.0376421,-5.641465 0.7766568,2.149073 1.1505941,3.741682 1.4950211,5.641465 0.839763,-1.944921 2.1185485,-3.494225 2.4735993,-6.180471 0.802219,2.413141 1.029709,4.034686 1.383197,6.168659 0.794998,-1.660405 1.024142,-2.540303 2.09916,-4.60264 0.06514,2.257553 0.30132,3.342087 0.884749,4.614452 0.645318,-1.813074 0.94407,-2.54155 1.704373,-4.497916 0.419297,2.065818 0.424252,2.481191 1.322915,4.497915 l 1e-6,1.322918 H 1.8520833 Z"
       sodipodi:nodetypes="cccccccccccccc" />
    <path
       id="rect1161-9-2"
       style="display:inline;stroke-width:0;stop-color:#000000"
       d="M 1.8520833,57.414583 C 2.4307261,56.059005 2.8996785,54.378101 3.175,52.122917 3.6730241,53.681004 4.1649514,55.25166 4.4979167,57.15 c 1.0745511,-0.393544 1.3828207,-2.216801 1.5875,-4.233333 0.5799888,1.413346 1.5658379,2.844548 1.5875,4.233333 1.0051007,-0.964418 1.0270282,-3.936995 1.3229166,-6.35 1.3441067,2.387792 2.2317957,4.492807 2.6458337,6.35 0.278649,-2.440848 0.962331,-3.92979 1.5875,-5.55625 0.482547,2.071504 0.927702,4.203868 1.852083,5.55625 0.988348,-0.781647 1.030869,-2.650963 1.322917,-4.233332 0.567178,1.437852 1.363899,2.763935 1.322915,4.497915 l 1e-6,1.322918 H 1.8520833 Z"
       sodipodi:nodetypes="cccccccccccccc" />
    <path
       id="rect1161-9-2-2"
       style="display:inline;stroke-width:0;stop-color:#000000"
       d="M 1.8520833,76.99375 C 2.4767682,75.566668 3.074541,74.090247 3.175,71.702084 c 0.6779156,1.522219 1.3903891,3.028489 1.5066645,4.809927 0.7501503,-0.877966 1.0512626,-2.24579 1.3202305,-3.648681 0.5763712,1.181642 1.1939881,2.357393 1.4705696,3.581863 0.1744185,-2.701887 0.9084952,-4.680625 2.1414295,-6.817722 0.4754549,2.425706 0.3523549,5.19245 2.1447029,6.917948 -0.0097,-1.724182 0.863224,-3.566047 1.47057,-5.372502 0.577635,1.866271 0.161215,4.087562 1.852083,5.55625 0.922229,-0.889732 1.213865,-2.319082 1.506665,-3.815723 0.436182,1.350692 0.953639,2.687838 1.139167,4.080306 l 1e-6,1.322918 H 1.8520833 Z"
       sodipodi:nodetypes="cccccccccccccc" />
  </g>
</svg>
